<svg xmlns="http://www.w3.org/2000/svg" width="155.657" height="35.022" viewBox="0 0 155.657 35.022"><g transform="translate(-53.5 -64)"><text transform="translate(201 88)" fill="#fff" font-size="18" font-family="LibreFranklin-Bold, Libre Franklin" font-weight="700" letter-spacing="0.019em"><tspan x="-137.43" y="0">FLASH</tspan><tspan y="0" font-family="LibreFranklin-Light, Libre Franklin" font-weight="300">STOCKS</tspan></text><g transform="translate(0 0.5)"><path d="M-206.09,164.575V160.8a2.251,2.251,0,0,0-2.251-2.251h-4.406" transform="translate(414.247 -94.053)" fill="none" stroke="#fff" stroke-miterlimit="10" stroke-width="2"/><path d="M-272.848,216.115v3.771a2.251,2.251,0,0,0,2.251,2.251h4.406" transform="translate(327.348 -124.615)" fill="none" stroke="#fff" stroke-miterlimit="10" stroke-width="2"/><path d="M-266.191,158.553H-270.6a2.251,2.251,0,0,0-2.251,2.251v3.771" transform="translate(327.348 -94.053)" fill="none" stroke="#fff" stroke-miterlimit="10" stroke-width="1"/><path d="M-212.747,222.137h4.406a2.251,2.251,0,0,0,2.251-2.251v-3.771" transform="translate(414.247 -124.615)" fill="none" stroke="#fff" stroke-miterlimit="10" stroke-width="1"/></g></g></svg>